<svg xmlns="http://www.w3.org/2000/svg" viewBox="0 0 96 96"><g id="icon"><path d="M89.11,15.55H6.89a4.64,4.64,0,0,1,0-9.28H89.11a4.64,4.64,0,1,1,0,9.28ZM6.89,7.77a3.14,3.14,0,1,0,0,6.28H89.11a3.14,3.14,0,1,0,0-6.28Z"/><path d="M89.11,74.44H6.89a4.64,4.64,0,0,1,0-9.28H89.11a4.64,4.64,0,0,1,0,9.28ZM6.89,66.66a3.14,3.14,0,0,0,0,6.28H89.11a3.14,3.14,0,0,0,0-6.28Z"/><path d="M88.28,66.66H7.72A.74.74,0,0,1,7,65.91V14.8a.74.74,0,0,1,.75-.75H88.28a.74.74,0,0,1,.75.75V65.91A.74.74,0,0,1,88.28,66.66ZM8.47,65.16H87.53V15.55H8.47Z"/><path d="M46.47,81.37a.74.74,0,0,1-.75-.75V73.69a.75.75,0,0,1,1.5,0v6.93A.75.75,0,0,1,46.47,81.37Z"/><path d="M46.48,89.73A4.93,4.93,0,1,1,51.4,84.8,4.93,4.93,0,0,1,46.48,89.73Zm0-8.36A3.43,3.43,0,1,0,49.9,84.8,3.44,3.44,0,0,0,46.48,81.37Z"/><path d="M27.8,57.94l-.17,0a.74.74,0,0,1-.56-.9c1.87-8,5-13,9.7-15.2,5.11-2.41,11.86-1.48,20.62,2.85,5.67,2.79,10.2,3.24,13.45,1.32,5-3,5.45-10.69,5.45-10.77a.75.75,0,0,1,1.5.07c0,.35-.46,8.61-6.19,12-3.71,2.2-8.72,1.77-14.87-1.27-8.33-4.11-14.65-5-19.31-2.83-4.22,2-7.13,6.63-8.89,14.18A.76.76,0,0,1,27.8,57.94Z"/><path d="M27.8,57.94a.75.75,0,0,1-.67-.41l-2.95-5.79a.76.76,0,0,1,.32-1,.74.74,0,0,1,1,.33l2.62,5.12,5.12-2.61a.75.75,0,0,1,.68,1.33l-5.79,3A.84.84,0,0,1,27.8,57.94Z"/><path d="M77,36a4.71,4.71,0,1,1,4.71-4.71A4.72,4.72,0,0,1,77,36Zm0-7.92a3.21,3.21,0,1,0,3.21,3.21A3.21,3.21,0,0,0,77,28.09Z"/><path d="M58.32,36.46a.77.77,0,0,1-.53-.22L51.58,30A.75.75,0,0,1,52.64,29l6.21,6.21a.75.75,0,0,1,0,1.06A.79.79,0,0,1,58.32,36.46Z"/><path d="M52.11,36.46a.75.75,0,0,1-.53-.22.74.74,0,0,1,0-1.06L57.79,29a.74.74,0,0,1,1.06,0,.75.75,0,0,1,0,1.06l-6.21,6.21A.79.79,0,0,1,52.11,36.46Z"/><path d="M41.34,29.66a.74.74,0,0,1-.53-.22L34.6,23.23a.75.75,0,1,1,1.06-1.06l6.21,6.21a.74.74,0,0,1,0,1.06A.73.73,0,0,1,41.34,29.66Z"/><path d="M35.13,29.66a.74.74,0,0,1-.53-.22.75.75,0,0,1,0-1.06l6.21-6.21a.75.75,0,0,1,1.06,0,.74.74,0,0,1,0,1.06l-6.21,6.21A.74.74,0,0,1,35.13,29.66Z"/><path d="M49.72,58.91a4.62,4.62,0,1,1,4.62-4.62A4.62,4.62,0,0,1,49.72,58.91Zm0-7.74a3.12,3.12,0,1,0,3.12,3.12A3.12,3.12,0,0,0,49.72,51.17Z"/><path d="M20.57,42.66a4.39,4.39,0,0,1-4.46-3.39.76.76,0,0,1,.62-.86.75.75,0,0,1,.86.62,2.89,2.89,0,0,0,3,2.13,3.07,3.07,0,0,0,2.84-1.67,2.3,2.3,0,0,0-.91-2.78,5.43,5.43,0,0,0-2-.48,9.23,9.23,0,0,1-1.76-.33,3.89,3.89,0,0,1-2.71-3.62,4.26,4.26,0,0,1,4.5-4A4.43,4.43,0,0,1,25,31.46a.75.75,0,1,1-1.46.35,2.91,2.91,0,0,0-2.94-2,2.77,2.77,0,0,0-3,2.45,2.4,2.4,0,0,0,1.67,2.2,8.18,8.18,0,0,0,1.47.26,6.36,6.36,0,0,1,2.53.67,3.8,3.8,0,0,1,1.55,4.65A4.52,4.52,0,0,1,20.57,42.66Z"/><path d="M20.57,29.83a.75.75,0,0,1-.75-.75V27.3a.75.75,0,0,1,1.5,0v1.78A.76.76,0,0,1,20.57,29.83Z"/><path d="M20.57,44.43a.74.74,0,0,1-.75-.75V41.91a.75.75,0,0,1,1.5,0v1.77A.75.75,0,0,1,20.57,44.43Z"/></g></svg>